<svg version="1.0" xmlns="http://www.w3.org/2000/svg" width="400" height="400"
    viewBox="0 0 400 400"
    preserveAspectRatio="xMidYMid meet" color-interpolation-filters="sRGB">
    <rect x="0" y="0" width="100%" height="100%" fill-opacity="0"></rect>
    <g class="c_box">
        <svg j_control="icon" xmlns="http://www.w3.org/2000/svg" x="0" y="0" width="400"
            height="400">
            <svg xmlns="http://www.w3.org/2000/svg" xmlns:xlink="http://www.w3.org/1999/xlink"
                viewBox="-5 -5 120 120">
                <defs>
                    <linearGradient id="e86d6dfd-0675-4868-860e-728bfa49dd01" x1="24.57" y1="85.29"
                        x2="89.61"
                        y2="20.23" gradientTransform="matrix(1, 0, 0, -1, 0, 98)"
                        gradientUnits="userSpaceOnUse">
                        <stop offset="0" stop-color="#29CDFF"></stop>
                        <!-- <stop offset="0" stop-color="#fc2452"></stop> -->
                        <stop offset="1" stop-color="#148EFF"></stop>
                    </linearGradient>
                </defs>
                <title>ACME</title>
                <g id="ba8d120a-a0e5-4937-912d-eaf40763bc38">
                    <g id="ff205d17-1bea-492c-be63-8d0680e4e58c">
                        <path
                            d="M9.75,53.78C5,35.32,19.56-8.2,74.87,5.9c53,13.53,25.55,77.68-8,87.24-29.35,8.37-42.7-5.48-32-27.83C42.33,49.62,50,36.75,57.33,41.14c3.93,2.37,4.11,8.62-2.5,8.62s-8.45,10.67,2.92,8.78c6.06-1,8,3.63,10.9,8.1s21.77,5.28,9-19.62c-8.25-16-17-23-25.49-23S34.68,33,22.31,55.11C17.65,63.46,12.72,65.32,9.75,53.78Z"
                            fill="url(#e86d6dfd-0675-4868-860e-728bfa49dd01)"></path>
                        <!-- 小点缀开始 -->
                        <!-- <path
                        d="M107.12,27.49c2.44,0,2.55-6.12-1.06-3.59C104,25.34,104.68,27.48,107.12,27.49Z"
                        fill="#29CDFF"></path> -->
                        <!-- <path
                        d="M102.41,20.23c-1.86,4.7,6,1.35,8.07-1.32S106.67,9.49,102.41,20.23Z"
                        fill="#f51d33">
                        </path> -->
                        <path
                            d="M13.35,69C-4.85,74.07-3,96.48,10.22,82.7,19.68,72.81,22.36,66.54,13.35,69Z"
                            fill="#148EFF"></path>
                        <path d="M24.7,76.43c-8.69,5.51-3.91,15,.46,11.36S27.74,74.5,24.7,76.43Z"
                            fill="#fc2452">
                        </path>
                        <!-- <path
                        d="M83.4,85.6c-2.45.1-1.82,7.21,2.35,6.2C90.48,90.65,85.84,85.49,83.4,85.6Z"
                        fill="#f89898"></path> -->
                        <!-- 小点缀结束 -->
                        <path
                            d="M14.22,25.76a31.66,31.66,0,0,0-6,5.44c-10.4,12.21-5.88,25,2.72,26.25h0c4.8.7,10.88-2.2,16.33-10.81C37.19,30.63,45,24,52.16,24c4.85,0,9.68,2.19,14.51,7C55.28,18.28,30.19,14.62,14.22,25.76Z"
                            fill="#29CDFF" opacity="0.5"></path>
                        <path
                            d="M104.62,40.27C91.51,22.49,56.43,16.1,42.3,28c3.48-2.75,6.72-4,9.86-4,8.49,0,17.24,7,25.49,23,12.77,24.9-6.1,24.09-9,19.62s-4.84-9.1-10.9-8.1c-11.37,1.89-9.54-8.77-2.92-8.78s6.43-6.25,2.5-8.62c-7.06-4.24-14.49,7.63-21.73,22.6C30.34,74.53,59,88.4,82.24,84.72A63.65,63.65,0,0,0,97.32,66.36a64,64,0,0,1-15.08,18.4c9.79-1.54,18.62-6.19,23.55-15.48C111.86,57.84,110.31,48,104.62,40.27Z"
                            fill="#1890ff" opacity="0.5" style="isolation:isolate"></path>
                        <!-- you -->
                        <path
                            d="M75.1,2.33c-1.55.6-3.4,1.38-5.48,2.38C58.2,10.2,39.73,22.42,25.55,49.47,36.3,31.41,44.53,24,52.16,24c8.49,0,17.24,7,25.49,23C90,71.1,72.76,71.14,69,67.07c6.84,8.24,24,1.8,29.67-31.66A94.79,94.79,0,0,0,100,22.72C100.73.09,89.18-3.17,75.1,2.33Z"
                            fill="#148EFF" opacity="0.1" style="isolation:isolate"></path>
                    </g>
                </g>
            </svg>
        </svg>
    </g>
</svg>